<svg xmlns="http://www.w3.org/2000/svg" viewBox="0 0 48 60" x="0px" y="0px"><title>12-Alcohol</title><g data-name="12-Alcohol"><path d="M30,6V1a1,1,0,0,0-1-1H19a1,1,0,0,0-1,1V6a7,7,0,0,0-7,7v5h2V16H35V34H13V26H11V43a5,5,0,0,0,5,5H32a5,5,0,0,0,5-5V13A7,7,0,0,0,30,6ZM20,2h8V6H27V4H25V6H23V4H21V6H20ZM13,14V13a5,5,0,0,1,5-5H30a5,5,0,0,1,5,5v1ZM32,46H16a3,3,0,0,1-2.82-2H33V42H13V36H35v7A3,3,0,0,1,32,46Z"/><path d="M26,18H22a1,1,0,0,0-1,1v3H18a1,1,0,0,0-1,1v4a1,1,0,0,0,1,1h3v3a1,1,0,0,0,1,1h4a1,1,0,0,0,1-1V28h3a1,1,0,0,0,1-1V23a1,1,0,0,0-1-1H27V19A1,1,0,0,0,26,18Zm3,6v2H26a1,1,0,0,0-1,1v3H23V27a1,1,0,0,0-1-1H19V24h3a1,1,0,0,0,1-1V20h2v3a1,1,0,0,0,1,1Z"/><rect x="11" y="20" width="2" height="4"/></g><text x="0" y="63" fill="#000000" font-size="5px" font-weight="bold" font-family="'Helvetica Neue', Helvetica, Arial-Unicode, Arial, Sans-serif">Created by libertetstudio</text><text x="0" y="68" fill="#000000" font-size="5px" font-weight="bold" font-family="'Helvetica Neue', Helvetica, Arial-Unicode, Arial, Sans-serif">from the Noun Project</text></svg>