<svg xmlns="http://www.w3.org/2000/svg" xmlns:xlink="http://www.w3.org/1999/xlink" version="1.1" x="0px" y="0px" viewBox="0 0 128 160" style="enable-background:new 0 0 128 128;" xml:space="preserve"><title>95 Miscellaneous 20</title><path d="M64,107c1.1,0,2-0.9,2-2v-5h5c1.1,0,2-0.9,2-2s-0.9-2-2-2h-5v-5c0-1.1-0.9-2-2-2s-2,0.9-2,2v5h-5c-1.1,0-2,0.9-2,2  s0.9,2,2,2h5v5C62,106.1,62.9,107,64,107z"/><path d="M13.7,89.4c-1.1-0.1-2,0.8-2.1,1.9c0,0,0,0,0,0.1l0,1.1c-11.2-20-9.8-44.7,3.6-63.4l-2.9-2.8C-2.4,46.2-4,72.8,8,94.4  L7,93.7c-0.9-0.6-2.2-0.3-2.8,0.6c-0.6,0.9-0.3,2.2,0.6,2.8l7.3,4.6c0.9,0.6,2.2,0.3,2.8-0.6c0.2-0.3,0.3-0.6,0.3-1l0.4-8.6  C15.6,90.4,14.8,89.4,13.7,89.4C13.7,89.4,13.7,89.4,13.7,89.4z"/><path d="M64,4c7.6,0,15.1,1.4,22.2,4.2c0.2-1.3,0.6-2.6,1.2-3.8c-15.1-5.9-31.8-5.9-46.8,0c0.6,1.2,1,2.5,1.2,3.8  C48.9,5.4,56.4,4,64,4z"/><path d="M20,28.2c1.1,1.1,2.9,1.1,4,0l11.2-10.9C37,15.5,38,13,38,10.5c0-2.5-1-5-2.8-6.8c-3.7-3.6-9.6-3.6-13.2,0l0,0l0,0  c-3.7-3.6-9.6-3.6-13.2,0C7,5.5,6,8,6,10.5c0,2.5,1,5,2.8,6.8L20,28.2z M11.6,6.6c2.1-2.1,5.5-2.1,7.6,0L20.6,8c0.8,0.8,2,0.8,2.8,0  l1.4-1.4c2.1-2.1,5.5-2.1,7.6,0c1,1.1,1.6,2.5,1.6,3.9c0,1.5-0.5,2.9-1.6,3.9L22,24.6L11.6,14.4c-1-1.1-1.6-2.5-1.6-3.9  C10,9,10.5,7.6,11.6,6.6z"/><path d="M104,28.2c1.1,1.1,2.9,1.1,4,0l11.2-10.9c1.8-1.8,2.8-4.3,2.8-6.8c0-2.5-1-5-2.8-6.8c-3.7-3.6-9.6-3.6-13.2,0l0,0l0,0  c-3.7-3.6-9.6-3.6-13.2,0C91,5.5,90,8,90,10.5c0,2.5,1,5,2.8,6.8L104,28.2z M95.6,6.6c2.1-2.1,5.5-2.1,7.6,0l1.4,1.4  c0.8,0.8,2,0.8,2.8,0l1.4-1.4c2.1-2.1,5.5-2.1,7.6,0c1,1.1,1.6,2.5,1.6,3.9c0,1.5-0.5,2.9-1.6,3.9L106,24.6L95.6,14.4  c-1-1.1-1.6-2.5-1.6-3.9C94,9,94.5,7.6,95.6,6.6z"/><path d="M121.3,88.5c-2.6-0.4-5.3-0.5-8-0.5c-12,0-40.3,3.6-44.3,36.7c0,0,0,0.1,0,0.1c-0.1,1,0.6,1.9,1.5,2.2c3.4,0.7,6.9,1,10.4,1  c13.4,0,36.6-4.8,42-37.2C123.2,89.7,122.4,88.7,121.3,88.5C121.3,88.5,121.3,88.5,121.3,88.5z M80.9,124L80.9,124  c-1.8,0-3.3-0.1-4.7-0.2L92,112.7c0.9-0.6,1.1-1.9,0.5-2.8c-0.6-0.9-1.9-1.1-2.8-0.5c0,0,0,0,0,0l-15.9,11.2  C79.1,95.9,100.5,92,113.4,92c2.2,0,4,0.1,5.3,0.2C113.4,118.4,95.3,124,80.9,124z"/><path d="M115.8,26.2l-2.9,2.8c7.2,10,11.1,22.1,11.1,34.5c0,7.1-1.3,14.2-3.8,20.8c1,0.1,1.6,0.2,1.7,0.2c0.8,0.1,1.5,0.4,2.1,0.8  C131.4,65.5,128.3,43.3,115.8,26.2z"/><path d="M26.5,113.6L20.6,81h86.8l-0.6,3.3c1.5-0.1,2.8-0.2,4.1-0.3l0.6-3h0.5c3.3,0,6-2.7,6-6v-2c0-3.3-2.7-6-6-6h-4.2  c0.1-0.8,0.2-1.7,0.2-2.5c0-7.7-4.6-14.2-10.6-15.3c-0.6-6.9-5-12.4-10.5-13.5C86.2,28,80.9,22,74.5,22c-4.4,0-8.3,2.8-10.5,7.1  c-2.2-4.3-6.1-7.1-10.5-7.1c-6.4,0-11.7,6-12.4,13.7c-5.5,1.1-9.9,6.6-10.5,13.5c-6,1.1-10.6,7.6-10.6,15.3c0,0.8,0.1,1.7,0.2,2.5  H16c-3.3,0-6,2.7-6,6v2c0,3.3,2.7,6,6,6h0.5l6,33.2c0.6,4.4,4.1,7.8,7.8,7.8h35c0.2-1.4,0.5-2.7,0.8-4H30.4  C28.7,118,26.8,116,26.5,113.6z M104,64.5c0,0.8-0.1,1.7-0.2,2.5H87.2c-0.1-0.8-0.2-1.7-0.2-2.5c0-6.3,3.8-11.5,8.5-11.5  S104,58.2,104,64.5z M45.2,67c-0.1-0.8-0.2-1.7-0.2-2.5c0-6.3,3.8-11.5,8.5-11.5S62,58.2,62,64.5c0,0.8-0.1,1.7-0.2,2.5H45.2z   M64,39.5c4.2,0,7.8,4.2,8.4,9.7c-3.7,0.9-6.8,3.5-8.4,6.9c-1.6-3.4-4.7-6-8.4-6.9C56.2,43.7,59.8,39.5,64,39.5z M66.2,67  c-0.1-0.8-0.2-1.7-0.2-2.5c0-6.3,3.8-11.5,8.5-11.5S83,58.2,83,64.5c0,0.8-0.1,1.7-0.2,2.5H66.2z M93.4,49.2  c-3.7,0.9-6.8,3.5-8.4,6.9c-1.6-3.4-4.7-6-8.4-6.9c0.6-5.5,4.1-9.7,8.4-9.7S92.8,43.7,93.4,49.2z M74.5,26c4.2,0,7.8,4.2,8.4,9.7  c-3.7,0.9-6.8,3.5-8.4,6.9c-1.6-3.4-4.7-6-8.4-6.9C66.7,30.2,70.3,26,74.5,26z M53.5,26c4.2,0,7.8,4.2,8.4,9.7  c-3.7,0.9-6.8,3.5-8.4,6.9c-1.6-3.4-4.7-6-8.4-6.9C45.7,30.2,49.3,26,53.5,26z M43,39.5c4.2,0,7.8,4.2,8.4,9.7  c-3.7,0.9-6.8,3.5-8.4,6.9c-1.6-3.4-4.7-6-8.4-6.9C35.2,43.7,38.8,39.5,43,39.5z M24,64.5c0-6.3,3.8-11.5,8.5-11.5S41,58.2,41,64.5  c0,0.8-0.1,1.7-0.2,2.5H24.2C24.1,66.2,24,65.3,24,64.5z M14,75v-2c0-1.1,0.9-2,2-2h96c1.1,0,2,0.9,2,2v2c0,1.1-0.9,2-2,2H16  C14.9,77,14,76.1,14,75z"/><text x="0" y="143" fill="#000000" font-size="5px" font-weight="bold" font-family="'Helvetica Neue', Helvetica, Arial-Unicode, Arial, Sans-serif">Created by priyanka</text><text x="0" y="148" fill="#000000" font-size="5px" font-weight="bold" font-family="'Helvetica Neue', Helvetica, Arial-Unicode, Arial, Sans-serif">from the Noun Project</text></svg>