<svg width="60" height="65" xmlns="http://www.w3.org/2000/svg">
  <path d="M.858 28.575c0 3.224 2.623 5.846 5.846 5.846.025 0 .049-.006.074-.008.112 0 .318.002.603.003.942 2.018 2.163 3.967 3.665 5.81 2.165 2.658 2.721 4.7 1.983 7.283-.234.818.24 1.67 1.057 1.904.142.041.284.06.424.06.67 0 1.287-.44 1.48-1.117 1.3-4.551-.683-7.774-2.557-10.074-1.008-1.238-1.873-2.527-2.596-3.852 2.046.007 4.571.013 6.92.013 8.625 0 13.877 7.195 19.438 14.813 5.62 7.701 11.433 15.664 21.127 15.664.851 0 1.54-.689 1.54-1.54V31.175c0-4.548-2.646-7.746-6.714-8.348C52.339 10.288 41.888.333 29.149.333c-12.781 0-23.26 10.02-24.008 22.616-2.466.685-4.283 2.945-4.283 5.626zm49.19-5.86H8.249c.856-10.786 9.897-19.303 20.9-19.303 11.001 0 20.043 8.517 20.899 19.303zm-46.111 5.86c0-1.525 1.241-2.766 2.767-2.766.05 0 .097-.01.146-.015h44.875c3.119 0 5.057 2.062 5.057 5.38v30.581c-7.251-.82-12.044-7.388-17.1-14.314-5.77-7.904-11.734-16.077-21.925-16.077-5.084 0-11.004-.03-11.063-.03-.018 0-.035.004-.053.004-1.496-.034-2.704-1.258-2.704-2.763z" fill="#000" fill-rule="nonzero"/>
</svg>
