<svg xmlns="http://www.w3.org/2000/svg" xmlns:xlink="http://www.w3.org/1999/xlink" version="1.1" x="0px" y="0px" viewBox="0 0 100 125" enable-background="new 0 0 100 100" xml:space="preserve"><path d="M50,39.71c-19.719,0-23.188,4.209-23.519,4.688c-0.115,0.167-0.176,0.365-0.176,0.567v7.564  c0,0.055,0.004,0.108,0.013,0.162c0.012,0.071,1.273,7.174,9.498,7.174c4.656,0,7.449-3.236,9.693-5.837  c1.588-1.841,2.96-3.431,4.491-3.431s2.902,1.59,4.491,3.43c2.245,2.602,5.038,5.838,9.694,5.838c8.224,0,9.485-7.103,9.497-7.174  c0.009-0.054,0.013-0.107,0.013-0.162v-7.564c0-0.202-0.062-0.4-0.176-0.567C73.188,43.919,69.72,39.71,50,39.71z M71.695,52.44  c-0.133,0.674-1.296,5.426-7.51,5.426c-3.74,0-5.997-2.615-8.18-5.145c-1.83-2.12-3.559-4.123-6.005-4.123s-4.175,2.003-6.005,4.124  c-2.183,2.528-4.439,5.144-8.179,5.144c-6.174,0-7.375-4.769-7.511-5.43v-7.058C29.238,44.608,33.828,41.71,50,41.71  c16.265,0,20.814,2.932,21.695,3.66V52.44z"/><path d="M43.813,50.001c-4.188,5.885-6.405,5.885-8.186,5.885c-0.335,0-0.693-0.038-1.064-0.112  c-0.27-0.058-0.535,0.121-0.589,0.392s0.121,0.534,0.392,0.589c0.436,0.088,0.86,0.132,1.261,0.132c2.469,0,4.851-0.475,9-6.305  c0.16-0.226,0.108-0.537-0.117-0.697C44.285,49.723,43.972,49.775,43.813,50.001z"/><path d="M32.244,54.892c-0.354-0.195-0.567-0.344-0.578-0.352c-0.225-0.159-0.536-0.105-0.696,0.12  c-0.159,0.225-0.106,0.536,0.119,0.696c0,0,0.249,0.177,0.671,0.41c0.077,0.043,0.16,0.062,0.241,0.062  c0.176,0,0.347-0.093,0.438-0.258C32.573,55.329,32.485,55.024,32.244,54.892z"/><text x="0" y="115" fill="#000000" font-size="5px" font-weight="bold" font-family="'Helvetica Neue', Helvetica, Arial-Unicode, Arial, Sans-serif">Created by Nook Fulloption</text><text x="0" y="120" fill="#000000" font-size="5px" font-weight="bold" font-family="'Helvetica Neue', Helvetica, Arial-Unicode, Arial, Sans-serif">from the Noun Project</text></svg>