<svg xmlns="http://www.w3.org/2000/svg" viewBox="0 0 64 80" x="0px" y="0px"><g><path d="M45,8a1,1,0,0,0,1-1V5a1,1,0,0,0-.8-.98l-10-2A.925.925,0,0,0,35,2H27a1,1,0,0,0-1,1V7a1,1,0,0,0,1,1h1v4.184A3,3,0,0,0,26,15v9.08A7,7,0,0,0,20,31V59a3,3,0,0,0,3,3H41a3,3,0,0,0,3-3V31a7,7,0,0,0-6-6.92V15a3,3,0,0,0-2-2.816V8ZM28,4h6.9L44,5.82V6H28Zm0,11a1,1,0,0,1,1-1h6a1,1,0,0,1,1,1v9H28ZM42,38V50H22V38h6V37a4,4,0,0,1,8,0v1Zm0,21a1,1,0,0,1-1,1H23a1,1,0,0,1-1-1V52H42Zm0-28v5H37.917a6,6,0,0,0-11.834,0H22V31a5.006,5.006,0,0,1,5-5H37A5.006,5.006,0,0,1,42,31ZM34,12H30V8h4Z"/><path d="M40,57V54H38v2H36v2h3A1,1,0,0,0,40,57Z"/><rect x="32" y="56" width="2" height="2"/><path d="M24,31v1h2V31a1,1,0,0,1,1-1h2V28H27A3,3,0,0,0,24,31Z"/><path d="M31.256,37.332C30.712,37.938,28,41.059,28,43a4,4,0,0,0,8,0c0-1.941-2.712-5.062-3.256-5.668A1.031,1.031,0,0,0,31.256,37.332ZM32,45a2,2,0,0,1-2-2c0-.637.939-2.125,2-3.451,1.062,1.332,2,2.831,2,3.451A2,2,0,0,1,32,45Z"/></g><text x="0" y="79" fill="#000000" font-size="5px" font-weight="bold" font-family="'Helvetica Neue', Helvetica, Arial-Unicode, Arial, Sans-serif">Created by Smalllike</text><text x="0" y="84" fill="#000000" font-size="5px" font-weight="bold" font-family="'Helvetica Neue', Helvetica, Arial-Unicode, Arial, Sans-serif">from the Noun Project</text></svg>