<svg width="32" height="32" xmlns="http://www.w3.org/2000/svg">
  <g fill="#000" fill-rule="nonzero">
    <path d="M31.123 13.875c-.01-1.477-.02-3.131-.02-4.99-.0009503-.8617108-.4051807-1.6733036-1.092376-2.193216-.6871954-.5199123-1.5781293-.6882038-2.407624-.454784v-.856c.0002903-.8621653-.4036301-1.6746004-1.0911876-2.1947868C25.8242549 2.666027 24.9325948 2.4982628 24.103 2.733c-.0686301-1.468881-1.2795165-2.6245126-2.75-2.6245126S18.6716301 1.2641189 18.603 2.733a2.743 2.743 0 00-.752-.1 2.7129994 2.7129994 0 00-.769.123C17.0183408 1.2867728 15.8111881.1269987 14.3405903.1221858 12.8699925.117373 11.6552745 1.269221 11.582 2.738c-.8295948-.2347372-1.721255-.0669731-2.4088124.4532132C8.4856301 3.7113996 8.0817097 4.5238347 8.082 5.386V16.3a15.8459928 15.8459928 0 01-1.523-1.679c-.8898603-1.391461-2.7124162-1.8442454-4.15-1.031-.7099447.4316199-1.2203952 1.1264796-1.42 1.933-.2196416.8627749-.0730816 1.7779602.405 2.529L7.2 26.505c.4803211.5843919 1.0933476 1.0455332 1.788 1.345V31c0 .5522847.4477152 1 1 1h17.963c.5522847 0 1-.4477153 1-1v-3.409c2.241-2.319 2.223-5.372 2.172-13.716zM10.812 4.628c.4134502.0053979.7471515.339543.752.753v5.666c0 .5522847.4477153 1 1 1s1-.4477153 1-1v-8.3c.0085768-.4108915.3410604-.7411645.752-.747.4154802 0 .7524482.3365202.753.752v2.629c0 .027.014.051.016.077v10.856a17.9560105 17.9560105 0 01-1.336-1.5c-.6024992-.8722238-1.5798006-1.4106839-2.639-1.454-.3614845.0098077-.7179461.0871371-1.0510326.228v-8.2c-.0018352-.2009181.0766731-.3942498.218091-.5369823.1414178-.1427325.3340148-.2230264.5349416-.2230177zm-.55 21.565c-.5530914-.1495401-1.0541638-.4488686-1.448-.865l-5.765-8.363c-.176635-.2811171-.2294578-.6226567-.146-.944.0639361-.2864182.2358645-.5371471.48-.7.256-.147.786-.453 1.6.552 1.824 2.258 2.953 3.08 3.943 2.862L14 26.17h-1.012c-.5522847 0-1 .4477153-1 1s.4477153 1 1 1h3.026V30h-5.026v-2.845c.0001208-.4468586-.2962428-.8395608-.726-.962zm17.011.242c-.205236.1893038-.3219827.4557909-.322.735V30h-8.937v-2.845c-.0000063-.4471387-.2968463-.8399311-.727-.962-.5512297-.1490384-1.0508064-.4469162-1.444-.861l-5.581-8.179c-.1765213-.2811595-.2293367-.6226506-.146-.944.0639361-.2864182.2358645-.5371471.48-.7.659-.379 1.237.106 1.6.552 2 2.473 2.867 2.814 3.509 2.814.3722264.0036555.7286154-.1503801.981-.424.2841988-.3351889.4275557-.7674099.4-1.206V5.381c.0005509-.415642.337358-.7524491.753-.753.4132282.005923.7466261.3397643.752.753v7.666c0 .5522847.4477153 1 1 1s1-.4477153 1-1V2.752c.0058966-.412463.3385453-.7455545.751-.752.4154802 0 .7524482.3365202.753.752v2.629c0 .029.014.054.016.082v7.6c0 .5522847.4477153 1 1 1s1-.4477153 1-1V5.4c0-.017-.009-.031-.009-.048.0093889-.4142136.3527864-.7423888.767-.733.4142136.0093889.7423888.3527864.733.767v3.5a.8859968.8859968 0 00.031.155v4.02c0 .5522847.4477153 1 1 1s1-.4477153 1-1v-4.33c.0674834-.3461747.3693217-.5970098.722-.6.412676.0059229.7456262.3393165.751.752 0 1.863.01 3.521.02 5 .05 8.727-.008 10.851-1.853 12.552z"/>
    <path d="M24.951 26.17h-4.937c-.5522847 0-1 .4477153-1 1s.4477153 1 1 1h4.937c.5522847 0 1-.4477153 1-1s-.4477153-1-1-1z"/>
  </g>
</svg>
