<svg width="58" height="88" xmlns="http://www.w3.org/2000/svg">
  <g fill="#000" fill-rule="nonzero">
    <path d="M49.2300001 87.7302155c-.6806811.0055871-1.3572637-.1060491-2-.3302151l-11-3.73c-.5969716-.2011524-1.0325157-.7176383-1.13-1.34l-3.72-23.54h-.59l.09 23.27c.0037012.728423-.4597509 1.3772559-1.15 1.61l-11 3.73c-.8989874.3099104-1.8593203.3990842-2.8.26-3.63-.53-4.69-1.48-5.16-2.14-.4417125-.6691144-.6652939-1.458636-.64-2.26-.0106576-2.6898257 1.4830225-5.1599942 3.87-6.4l4.21-2.25-2.5-18.71a1.6199924 1.6199924 0 010-.22v-11.06l-3.71 7.94c-1.3475748 3.1204089-4.9695912 4.5575748-8.09 3.21-3.1204089-1.3475748-4.5575748-4.9695911-3.21-8.09l7.58-19.15c.912873-2.2906581 2.5354814-4.2286763 4.63-5.5300082.1138682-.0777611.2385286-.1384067.37-.1799918l6-2c.3717138-.3049068.494426-.820298.3-1.26l-1.54-3.67c-.3189133-.7563373-.4821619-1.569179-.48-2.3900082V6.2000004c-.0079925-1.643312.6399036-3.2219167 1.8000356-4.3858031C20.5201678.6503108 22.0966709-.0026824 23.7400001-.0000078h11.61c3.3997909.005514 6.1544942 2.7602173 6.16 6.1600082v7.24c-.0021758.8363387-.1757474 1.6633565-.51 2.43l-1.52 3.6699918c-.1900967.4575101-.0509004.9856373.34 1.2900082l4.89 2c.1043585.0587121.2016577.1291702.29.2099918 2.1011047 1.3116757 3.7244257 3.2645694 4.63 5.5700082l7.58 19.15c1.3475746 3.1066017-.0783985 6.717425-3.1850001 8.0649998-3.1066017 1.3475747-6.7174251-.0783982-8.0649999-3.1849998l-2.66-5.64.93 8.52 3.29 19 4.48 2.38c2.3979428 1.2361677 3.9005579 3.7121992 3.89 6.41.022454.7947604-.2010619 1.5770659-.64 2.24-.47.67-1.53 1.62-5.16 2.15-.2847007.0432125-.5720586.0666021-.86.0702151zm-10.91-7.0002151l10.05 3.4c.3906802.1394082.8096451.1806178 1.22.12a8.7500005 8.7500005 0 002.86-.77v-.32c-.0249545-1.41959-.8331758-2.7088955-2.1-3.35l-5.24-2.8c-.4587505-.2502331-.7788642-.6954489-.87-1.21l-3.41-19.8v-.11l-2-18.64c-.0417526-.7852027.4604349-1.4965777 1.2143014-1.7201217.7538665-.223544 1.5626668.0990838 1.9556986.7801217l7 14.8c.6858265 1.2332788 2.1961738 1.7439795 3.4897176 1.1799945 1.2935437-.5639851 1.9471929-2.0181883 1.5102824-3.3599945l-7.58-19.15c-.6198269-1.5903995-1.7256531-2.9446866-3.16-3.87l-4.91-2a1.2299959 1.2299959 0 01-.25-.14c-1.8690273-1.1677406-2.611168-3.521387-1.75-5.55l1.54-3.67a2.6300016 2.6300016 0 00.22-1.07v-7.28c-.0054849-1.5220282-1.2379718-2.7545151-2.76-2.76h-11.61c-1.5142121.0163908-2.7346219 1.2457088-2.74 2.76v7.24a2.6299983 2.6299983 0 00.22 1.07l1.54 3.67c.8593276 2.0310243.1127283 4.3853574-1.76 5.55a1.4100004 1.4100004 0 01-.37.18l-6.06 2c-1.4090756.9273132-2.495702 2.2689999-3.11 3.84l-7.6 19.18c-.4369105 1.3418062.2167386 2.7960094 1.5102824 3.3599945 1.2935438.563985 2.803891.0532843 3.4897176-1.1799945l7-14.8c.3349222-.7170238 1.1203206-1.1080993 1.8943515-.9432594.774031.1648399 1.331937.8419895 1.3456485 1.6332594v18.57l2.62 19.76c.0911384.7029005-.2582333 1.3897334-.88 1.73l-5.25 2.8c-1.2613879.6455309-2.0647726 1.9332527-2.09 3.35v.32a8.6499983 8.6499983 0 002.86.77c.4103647.0602072.8292301.0190073 1.22-.12l9.87-3.33-.09-23.76c-.0026807-.4516845.175565-.8856454.4949598-1.2050402.3193947-.3193948.7533557-.4976405 1.2050402-.4949598h3.75c.8314703.0041209 1.5379515.6090719 1.67 1.43l3.84 23.91z"/>
    <path d="M30.3900001 20.0000394h-1.64c-2.1919648.0092956-4.027922-1.6573889-4.23-3.840039l-.5-5c-.1154354-1.193798.2777137-2.3809511 1.0828826-3.2698729.805169-.8889217 1.9477548-1.397249 3.1471174-1.400127h2.63c1.2011047 0 2.3463719.507169 3.1537536 1.3964313.8073816.8892624 1.2018457 2.0780397 1.0862464 3.2735686l-.5 5c-.202078 2.1826501-2.0380352 3.8493346-4.23 3.840039zm-2.14-10.110091c-.2401227.000209-.4689766.1019218-.63.280052-.1612081.1758102-.2378718.4131025-.21.65l.49 5c.041398.4379478.4101043.7719523.85.7700085h1.64c.4398957.0019438.808602-.3320607.85-.7700085l.49-5c.0278717-.2368975-.048792-.4741898-.21-.65-.1633511-.180735-.3963989-.2826934-.64-.280052h-2.63zM12.1200001 49.460044c-.2522244.0017672-.5016555-.0529026-.73-.1600436l-7.39-3.52c-.8304145-.4127882-1.1767953-1.414935-.778519-2.2524064.3982763-.8374714 1.3942443-1.2012374 2.238519-.8175936l7.39 3.52c.7113781.3444945 1.0914795 1.1338364.9172384 1.9047938-.1742412.7709574-.8568528 1.3201197-1.6472384 1.3252498zM46.2200001 49.4900004c-.7903856-.0050865-1.4729973-.5542488-1.6472384-1.3252062-.1742412-.7709574.2058602-1.5602993.9172384-1.9047938l7.38-3.52c.5501781-.2734863 1.2051125-.2288263 1.7130722.1168146.5079598.3456409.7898921.9384712.7374333 1.5506303-.0524588.6121591-.4311446 1.1483779-.9905055 1.4025551l-7.33 3.52c-.2442516.11256-.5111597.1673103-.78.16zM40.9100001 49.2900004h-22.81c-.9388841 0-1.7-.7611159-1.7-1.7s.7611159-1.7 1.7-1.7h22.81c.938884 0 1.7.7611159 1.7 1.7s-.761116 1.7-1.7 1.7z"/>
  </g>
</svg>
