<svg xmlns="http://www.w3.org/2000/svg" data-name="Слой 1" viewBox="0 0 128 160" x="0px" y="0px"><title>ic_rubber_gloves</title><path d="M121.28,33.35l.43-.43a8.49,8.49,0,0,0-4.39-14.35A8.49,8.49,0,0,0,105.68,6.9,8.49,8.49,0,0,0,91.33,2.49L86.5,7.32a8.36,8.36,0,0,0-2.27-4.1,8.51,8.51,0,0,0-12,0L5.74,69.69a6.51,6.51,0,0,0,0,9.19L7.9,81A6.53,6.53,0,0,0,5.7,91.69L36.11,122.1a6.51,6.51,0,0,0,9.19,0l.23-.25.13-.11,18.8-18.8L103,92.63a9.24,9.24,0,0,0,4.36-15.34,9.82,9.82,0,0,0,1.33-1.73,9.25,9.25,0,0,0-3.28-12.66l-.58-.31,16.87-16.86a8.52,8.52,0,0,0,0-12C121.54,33.58,121.41,33.47,121.28,33.35ZM8.57,72.52a2.49,2.49,0,0,1,3.54,0l30.4,30.4a2.49,2.49,0,0,1,0,3.54,2.58,2.58,0,0,1-3.58.05l-1.3-1.31L8.57,76.05a2.5,2.5,0,0,1,0-3.53Zm30.37,46.75L8.53,88.86a2.5,2.5,0,0,1,0-3.53,2.66,2.66,0,0,1,1.87-.77,2.45,2.45,0,0,1,1.61.6l30.46,30.57h0a2.49,2.49,0,0,1,0,3.54A2.56,2.56,0,0,1,38.94,119.27Zm66.23-32.93A5.26,5.26,0,0,1,102,88.76L62.9,99.22l0,0a1.94,1.94,0,0,0-.84.49L46.72,115a6.46,6.46,0,0,0-1.41-2.11l-2.16-2.17a6.54,6.54,0,0,0,2.19-1.45l.23-.25.13-.11,18.8-18.8L103,79.81a8.16,8.16,0,0,0,.84-.26,5.19,5.19,0,0,1,1.32,6.79Zm.6-16.79A5.25,5.25,0,0,1,102,76l-39,10.46,0,0a1.94,1.94,0,0,0-.84.49L46.76,102.21a6.48,6.48,0,0,0-1.42-2.12l-30.4-30.4a6.48,6.48,0,0,0-2.12-1.42L75,6.05a4.5,4.5,0,1,1,6.36,6.36L62.67,31.15A2,2,0,0,0,65.49,34L84.23,15.24l9.93-9.92a4.5,4.5,0,1,1,6.36,6.36L73.27,38.93a2,2,0,0,0,1.42,3.41h0a2,2,0,0,0,1.41-.58l27.25-27.25h0l3.5-3.5a4.5,4.5,0,1,1,6.36,6.36l-3.53,3.53h0L82.47,48.12A2,2,0,1,0,85.29,51l27.23-27.23a4.5,4.5,0,0,1,6.36,6.37L83.8,65.17l-1.38.31a21.63,21.63,0,0,0-29.74.76,2,2,0,1,0,2.83,2.83,17.64,17.64,0,0,1,24.92,0,2,2,0,0,0,1.42.59,1.84,1.84,0,0,0,.41,0h0l17.1-3.82a5.23,5.23,0,0,1,6.39,3.76ZM118.84,42.9,100.11,61.63a8.68,8.68,0,0,0-1.67.27l-7.35,1.64L118.43,36.2a4.35,4.35,0,0,1,.41.34A4.49,4.49,0,0,1,118.84,42.9Z"/><text x="0" y="143" fill="#000000" font-size="5px" font-weight="bold" font-family="'Helvetica Neue', Helvetica, Arial-Unicode, Arial, Sans-serif">Created by LAFS</text><text x="0" y="148" fill="#000000" font-size="5px" font-weight="bold" font-family="'Helvetica Neue', Helvetica, Arial-Unicode, Arial, Sans-serif">from the Noun Project</text></svg>