<svg xmlns="http://www.w3.org/2000/svg" data-name="01-3d printer" viewBox="0 0 48 60" x="0px" y="0px"><title>01-3d printer</title><path d="M24,36a1.01,1.01,0,0,1-.316-.051l-6-2A1,1,0,0,1,17,33V27a1,1,0,0,1,1.316-.949l6,2A1,1,0,0,1,25,29v6a1,1,0,0,1-1,1Zm-5-3.721,4,1.334V29.721l-4-1.334Z"/><path d="M24,36a1,1,0,0,1-1-1V29a1,1,0,0,1,.684-.949l6-2A1,1,0,0,1,31,27v6a1,1,0,0,1-.684.949l-6,2A1.01,1.01,0,0,1,24,36Zm1-6.279v3.892l4-1.334V28.387Z"/><path d="M29.684,27.949,24,26.054l-5.684,1.9-.632-1.9,6-2a1,1,0,0,1,.632,0l6,2Z"/><path d="M47,46H1a1,1,0,0,1-1-1V39a1,1,0,0,1,1-1H35v2H2v4H46V40H37V38H47a1,1,0,0,1,1,1v6A1,1,0,0,1,47,46Z"/><path d="M44,40H40a1,1,0,0,1-1-1V11a1,1,0,0,1,1-1h4a1,1,0,0,1,1,1v3H43V12H41V38h2V16h2V39A1,1,0,0,1,44,40Z"/><path d="M8,40H4a1,1,0,0,1-1-1V11a1,1,0,0,1,1-1H8a1,1,0,0,1,1,1V39A1,1,0,0,1,8,40ZM5,38H7V12H5Z"/><path d="M32,39H30V37H18v2H16V36a1,1,0,0,1,1-1H31a1,1,0,0,1,1,1Z"/><path d="M24,16H12a1,1,0,0,1-1-1V7a1,1,0,0,1,1-1H24a1,1,0,0,1,1,1v8A1,1,0,0,1,24,16ZM13,14H23V8H13Z"/><path d="M21,20H15a1,1,0,0,1-1-1V15h2v3h4V15h2v4A1,1,0,0,1,21,20Z"/><rect x="17" y="19" width="2" height="3"/><path d="M47,12H24V10H46V4H2v6H12v2H1a1,1,0,0,1-1-1V3A1,1,0,0,1,1,2H47a1,1,0,0,1,1,1v8A1,1,0,0,1,47,12Z"/><rect x="24" y="7" width="20" height="2"/><rect x="4" y="7" width="8" height="2"/><rect x="14" y="9" width="2" height="2"/><text x="0" y="63" fill="#000000" font-size="5px" font-weight="bold" font-family="'Helvetica Neue', Helvetica, Arial-Unicode, Arial, Sans-serif">Created by Justicon</text><text x="0" y="68" fill="#000000" font-size="5px" font-weight="bold" font-family="'Helvetica Neue', Helvetica, Arial-Unicode, Arial, Sans-serif">from the Noun Project</text></svg>