<?xml version="1.0" encoding="UTF-8"?>
<svg width="24px" height="20px" viewBox="0 0 24 20" version="1.1" xmlns="http://www.w3.org/2000/svg" xmlns:xlink="http://www.w3.org/1999/xlink">
    <!-- Generator: Sketch 64 (93537) - https://sketch.com -->
    <title>Shape</title>
    <desc>Created with Sketch.</desc>
    <g id="Page-1" stroke="none" stroke-width="1" fill="none" fill-rule="evenodd">
        <g id="noun_Medical-Mask_2766920" fill="#000000" fill-rule="nonzero">
            <g id="Group">
                <path d="M12,0.5 C13.6019471,0.5 14.8327772,1.63007192 15.4681646,3.32443828 C15.8847268,4.43527084 16.4157531,5.33211518 17.2333333,6.42222222 C17.2647176,6.46406789 17.3129605,6.52743117 17.3716979,6.60418373 C21.2406668,7.36973988 24.3416637,10.544509 22.5326194,12.3535534 C22.4771317,12.4090411 22.4201047,12.4586321 22.3610204,12.5024689 C21.9095007,12.8374682 21.7743149,12.8280022 20.7437801,12.6000106 C20.5173402,12.5499139 20.3318405,12.5177712 20.1293141,12.4975186 L19.9990485,12.489 L20,12.5 C20,21.575 4.3184,21.66575 4.004768,12.77225 L3.99910129,12.5013885 C3.85519355,12.4822803 3.71049436,12.4814444 3.54975186,12.4975186 C3.34722551,12.5177712 3.16172579,12.5499139 2.93528586,12.6000106 C1.90475107,12.8280022 1.76956527,12.8374682 1.3180456,12.5024689 C1.25896128,12.4586321 1.20193435,12.4090411 1.14644661,12.3535534 C-0.720142385,10.4869644 2.64064897,7.16638304 6.67624388,6.54052014 C6.71463086,6.49113512 6.74475691,6.45143523 6.76666667,6.42222222 C7.58424694,5.33211518 8.1152732,4.43527084 8.53183541,3.32443828 C9.15745795,1.65611151 10.4072353,0.5 12,0.5 Z M12,1.5 C10.8902199,1.5 9.96200791,2.35864619 9.46816459,3.67556172 C9.01351468,4.88796148 8.43658639,5.86232926 7.56666667,7.02222222 C7.39168103,7.2555364 6.73543103,8.1027586 6.5875,8.3 C5.4560412,9.8086117 5,10.8844012 5,12.5 C5,20.3333333 19,20.3333333 19,12.5 C19,10.8844012 18.5439588,9.8086117 17.4125,8.3 C17.264569,8.1027586 16.608319,7.2555364 16.4333333,7.02222222 C15.5634136,5.86232926 14.9864853,4.88796148 14.5318354,3.67556172 C14.0284528,2.33320799 13.1209552,1.5 12,1.5 Z M14.5,15 C14.7761424,15 15,15.2238576 15,15.5 C15,15.7761424 14.7761424,16 14.5,16 L14.5,16 L9.5,16 C9.22385763,16 9,15.7761424 9,15.5 C9,15.2238576 9.22385763,15 9.5,15 L9.5,15 Z M6.5,13 C6.66081084,13 6.79424224,13.0396035 6.89993608,13.1000194 L6.95204849,13.135 L6.93173534,13.2570787 C6.85363048,13.6570787 6.71552562,13.938845 6.55448051,13.9911982 L6.5,14 C6.31590509,14 6.15504784,13.7015232 6.06826466,13.2570787 L6.04704849,13.134 L6.10006392,13.1000194 C6.20575776,13.0396035 6.33918916,13 6.5,13 Z M17.5,13 C17.6608109,13 17.7942423,13.0396035 17.8999361,13.1000194 L17.9520485,13.135 L17.9317353,13.2570787 C17.8536305,13.6570787 17.7155256,13.938845 17.5544805,13.9911982 L17.5,14 C17.3159051,14 17.1550478,13.7015232 17.0682647,13.2570787 L17.0470485,13.134 L17.1000639,13.1000194 C17.2057577,13.0396035 17.3391891,13 17.5,13 Z M15.5,12 C15.7761424,12 16,12.2238576 16,12.5 C16,12.7761424 15.7761424,13 15.5,13 L15.5,13 L8.5,13 C8.22385763,13 8,12.7761424 8,12.5 C8,12.2238576 8.22385763,12 8.5,12 L8.5,12 Z M6.5,11 C6.68409491,11 6.84495216,11.2984768 6.93173534,11.7429213 L6.95204849,11.864 L6.89993608,11.8999806 C6.79424224,11.9603965 6.66081084,12 6.5,12 C6.33918916,12 6.20575776,11.9603965 6.10006392,11.8999806 L6.04704849,11.865 L6.06826466,11.7429213 C6.14636952,11.3429213 6.28447438,11.061155 6.44551949,11.0088018 Z M17.5,11 C17.6840949,11 17.8449522,11.2984768 17.9317353,11.7429213 L17.9520485,11.864 L17.8999361,11.8999806 C17.7942423,11.9603965 17.6608109,12 17.5,12 C17.3391891,12 17.2057577,11.9603965 17.1000639,11.8999806 L17.0470485,11.865 L17.0682647,11.7429213 C17.1463695,11.3429213 17.2844744,11.061155 17.4455195,11.0088018 Z M5.73285066,7.77483886 C2.91662782,8.60551656 0.947187807,10.740081 1.85355339,11.6464466 C1.87523076,11.668124 1.8953009,11.6855771 1.9138935,11.6993716 C2.01678143,11.775708 2.03879429,11.7741666 2.71927293,11.6236201 C2.98111992,11.5656901 3.20350949,11.5271553 3.45024814,11.5024814 C3.66851861,11.4806544 3.86747234,11.4799428 4.0602637,11.5000815 C4.2280401,10.1424432 4.77331489,9.05224684 5.7875,7.7 Z M18.3679097,7.91095939 L18.425695,7.99014004 C19.3002503,9.20682941 19.7803987,10.2327645 19.9396007,11.4869849 C20.0315761,11.4868385 20.1281422,11.4924138 20.2288179,11.5024814 C20.4755565,11.5271553 20.6979461,11.5656901 20.9597931,11.6236201 C21.6402717,11.7741666 21.6622846,11.775708 21.7651725,11.6993716 C21.7837651,11.6855771 21.8038352,11.668124 21.8255126,11.6464466 C22.6859098,10.7860494 20.9548102,8.81887592 18.3679097,7.91095939 Z M14.5,9 C14.7761424,9 15,9.2238576 15,9.5 C15,9.7761424 14.7761424,10 14.5,10 L14.5,10 L9.5,10 C9.22385763,10 9,9.7761424 9,9.5 C9,9.2238576 9.22385763,9 9.5,9 L9.5,9 Z M10.0256584,3.84188612 C10.6776077,1.88603796 13.3223923,1.88603796 13.9743416,3.84188612 C14.0616655,4.10385778 13.9200855,4.38701776 13.6581139,4.47434165 C13.3961422,4.56166554 13.1129822,4.42008554 13.0256584,4.15811388 C12.6776077,3.11396204 11.3223923,3.11396204 10.9743416,4.15811388 C10.8870178,4.42008554 10.6038578,4.56166554 10.3418861,4.47434165 C10.0799145,4.38701776 9.93833446,4.10385778 10.0256584,3.84188612 Z" id="Shape"></path>
            </g>
        </g>
    </g>
</svg>