<svg xmlns="http://www.w3.org/2000/svg" data-name="Слой 1" viewBox="0 0 128 160" x="0px" y="0px"><title>ic_respirator</title><path d="M108.94,62.1a52.19,52.19,0,0,0,1.2-9.66C110.14,32.86,104.14,0,64,0,47.59,0,35.24,5.85,27.28,17.38c-7.78,11.28-9.42,25.29-9.42,35.06A52.31,52.31,0,0,0,19,62.06v.14a2.47,2.47,0,0,0,.11.47c1.75,8.65,5,18.75,7.36,26.2C27.71,92.71,28.76,96,29,97.39a2.14,2.14,0,0,0,.19.52c1.35,6.77,4.38,14.4,9.37,20.11,5.35,6.11,17.14,9.91,25.13,10H64c8-.06,19.78-3.86,25.12-10a43.18,43.18,0,0,0,8.69-17.16,1.86,1.86,0,0,0,.16-.47c.28-1.37,1.43-5,2.76-9.12,2.64-8.23,6.22-19.4,8.11-28.6A1.92,1.92,0,0,0,108.94,62.1ZM89.25,70.79C83.82,67.29,72.66,62.1,64,62H63.7c-8.64.09-19.8,5.28-25.24,8.78a25.21,25.21,0,0,0-6.58,5.54C28.34,71.18,24,64.61,23.17,62.5l-.18-1c-.13-2.49,1.51-4.88,2.94-6.47C31.63,48.78,46,42,64,42c18.54,0,32.86,6.5,38.33,12.54,1.36,1.5,2.93,3.81,2.68,6.26a1.52,1.52,0,0,0,0,.48,1.89,1.89,0,0,0,0,.23c-1.11,2.5-6,10.18-9,14.94A24.69,24.69,0,0,0,89.25,70.79ZM29,83.45c-.77-2.44-1.58-5.1-2.39-7.83,1.32,2,2.5,3.66,3.2,4.67A21.06,21.06,0,0,0,29,83.45ZM64,4c34.83,0,42.14,26.34,42.14,48.44,0,.13,0,.27,0,.4-.26-.33-.53-.66-.83-1C97.79,43.57,81.2,38,64,38c-19.35,0-34.55,7.23-41,14.39-.38.43-.74.85-1.06,1.28,0-.42-.05-.84-.05-1.23C21.86,37.88,26,4,64,4Zm-.14,120c-8,0-18.16-4-22.24-8.6H44a2,2,0,1,0,0-4H38.69A43.63,43.63,0,0,1,32.4,89.79a29.65,29.65,0,0,1,.8-7.1h4.68a2,2,0,0,0,0-4h-2.8a21,21,0,0,1,5.55-4.53C45.51,71,56.11,66,63.86,66s18.35,5,23.23,8.16a20.81,20.81,0,0,1,5.54,4.53H90a2,2,0,0,0,0,4h4.49a29.72,29.72,0,0,1,.79,7.1A43.61,43.61,0,0,1,89,111.4H83.89a2,2,0,0,0,0,4h2.2C82,120.05,71.86,124,63.86,124Zm35-40.06a21.23,21.23,0,0,0-.81-3.4c.66-1,2-3,3.48-5.38C100.64,78.18,99.73,81.16,98.85,83.94Z"/><path d="M81.86,52.64A10.35,10.35,0,0,0,72.72,58a2,2,0,0,0,.89,2.69,2.08,2.08,0,0,0,.9.21,2,2,0,0,0,1.79-1.11,6.27,6.27,0,0,1,5.56-3.1,9.41,9.41,0,0,1,6.81,3.41,2,2,0,1,0,3.2-2.4A13.31,13.31,0,0,0,81.86,52.64Z"/><path d="M46.14,52.64a13.31,13.31,0,0,0-10,5,2,2,0,1,0,3.2,2.4,9.4,9.4,0,0,1,6.81-3.41,6.33,6.33,0,0,1,5.57,3.12,2,2,0,0,0,1.78,1.09,2.08,2.08,0,0,0,.9-.21A2,2,0,0,0,55.28,58,10.35,10.35,0,0,0,46.14,52.64Z"/><path d="M46.14,60a2,2,0,1,0,2,2A2,2,0,0,0,46.14,60Z"/><path d="M81.86,60a2,2,0,1,0,2,2A2,2,0,0,0,81.86,60Z"/><path d="M64,83A16.57,16.57,0,1,0,80.52,99.57,16.58,16.58,0,0,0,64,83Zm0,29.13A12.57,12.57,0,1,1,76.52,99.57,12.58,12.58,0,0,1,64,112.13Z"/><path d="M64,97.56a2,2,0,1,0,2,2A2,2,0,0,0,64,97.56Z"/><circle cx="56.67" cy="99.57" r="2"/><circle cx="71.24" cy="99.57" r="2"/><path d="M61.34,104.15l-.13-.07A2,2,0,0,0,59.6,104a2,2,0,0,0-.89.67h0l-.14.22c0,.08-.08.16-.12.24a2,2,0,0,0,.66,2.35h0a2,2,0,0,0,1.2.4,2,2,0,0,0,1.61-.8,2.05,2.05,0,0,0,.25-.46A2,2,0,0,0,61.34,104.15Z"/><path d="M66.57,95l.13.07a2,2,0,0,0,.9.21,1.94,1.94,0,0,0,.71-.13,2,2,0,0,0,.89-.67h0l.15-.22.11-.24a2,2,0,0,0-.83-2.46,2,2,0,0,0-2.64.52A2,2,0,0,0,66.57,95Z"/><path d="M69.35,104.9l-.15-.23h0a2,2,0,0,0-.89-.67,2,2,0,0,0-1.61.08l-.13.07a2,2,0,0,0-.83,2.47,2.05,2.05,0,0,0,.25.46,2,2,0,0,0,2.64.51,2,2,0,0,0,.83-2.46C69.42,105.05,69.39,105,69.35,104.9Z"/><path d="M58.57,94.24a1.64,1.64,0,0,0,.14.22h0a2,2,0,0,0,.89.67,1.94,1.94,0,0,0,.71.13,2,2,0,0,0,.9-.21l.13-.07a2,2,0,1,0-2.23-3.33h0A2,2,0,0,0,58.45,94C58.49,94.08,58.52,94.16,58.57,94.24Z"/><text x="0" y="143" fill="#000000" font-size="5px" font-weight="bold" font-family="'Helvetica Neue', Helvetica, Arial-Unicode, Arial, Sans-serif">Created by LAFS</text><text x="0" y="148" fill="#000000" font-size="5px" font-weight="bold" font-family="'Helvetica Neue', Helvetica, Arial-Unicode, Arial, Sans-serif">from the Noun Project</text></svg>