<svg width="42" height="58" xmlns="http://www.w3.org/2000/svg">
  <g fill="#000" fill-rule="nonzero">
    <path d="M29 4.4999996H7c-.5522848 0-1 .4477152-1 1 0 .5522847.4477152 1 1 1h3v5H7c-.5522848 0-1 .4477152-1 1v9c-3.3137085 0-6 2.6862915-6 6v28c0 1.1045695.8954305 2 2 2h24c1.1045695 0 2-.8954305 2-2v-28c0-3.3137085-2.6862915-6-6-6v-9c0-.5522848-.4477153-1-1-1h-3v-5h11c.5522847 0 1-.4477153 1-1 0-.5522848-.4477153-1-1-1zm-3 23v28H2v-28c0-2.209139 1.790861-4 4-4h16c2.209139 0 4 1.790861 4 4zm-6-6H8v-8h12v8zm-4-10h-4v-5h4v5zM33.38 4.5799996c-.2434614-.100018-.5165386-.100018-.76 0a1.0000001 1.0000001 0 00-.33.21c-.3881684.3913645-.3864418 1.0230375.0038603 1.4122742.390302.3892366 1.0219774.3892366 1.4122794 0 .3903021-.3892367.3920287-1.0209097.0038603-1.4122742a1.0000001 1.0000001 0 00-.33-.21zM37.71 2.7899996a1.0000001 1.0000001 0 00-.33-.21c-.2434614-.100018-.5165386-.100018-.76 0a1.0000001 1.0000001 0 00-.33.21 1.1500015 1.1500015 0 00-.21.33.8399995.8399995 0 00-.08.38c.0036835.264767.1072663.5183662.29.71a1.0000001 1.0000001 0 00.33.21c.2420399.1069768.5179601.1069768.76 0a1.1499993 1.1499993 0 00.33-.21c.1827337-.1916338.2863165-.445233.29-.71a.8399995.8399995 0 00-.08-.38 1.1500015 1.1500015 0 00-.21-.33zM37.71 6.7899996a1.0000001 1.0000001 0 00-.33-.21c-.2434614-.100018-.5165386-.100018-.76 0a1.0000001 1.0000001 0 00-.33.21 1.1500015 1.1500015 0 00-.21.33.8399995.8399995 0 00-.08.38c.0036835.264767.1072663.5183662.29.71a1.0000001 1.0000001 0 00.33.21c.2420399.1069768.5179601.1069768.76 0a1.1499993 1.1499993 0 00.33-.21c.1827337-.1916338.2863165-.445233.29-.71a.8399995.8399995 0 00-.08-.38 1.1500015 1.1500015 0 00-.21-.33zM40.44 2.3299996l.18.09.18.06h.4l.18-.06.18-.09.15-.12c.1827337-.1916338.2863165-.445233.29-.71a1.4999979 1.4999979 0 000-.2.6400004.6400004 0 00-.06-.18.7599998.7599998 0 00-.09-.18l-.12-.15-.15-.12-.18-.09-.18-.06a.9.9 0 00-.4 0l-.18.06-.18.09-.15.12a1.5800068 1.5800068 0 00-.12.15.7599998.7599998 0 00-.09.18.6399986.6399986 0 00-.1.18 1.4999979 1.4999979 0 000 .2c.0036835.264767.1072663.5183662.29.71l.15.12zM41.71 4.7899996l-.15-.12-.18-.09-.18-.06a.9.9 0 00-.4 0l-.18.06-.18.09-.15.12a1.1500015 1.1500015 0 00-.21.33.8399995.8399995 0 00-.08.38c.0036835.264767.1072663.5183662.29.71l.15.12.18.09.18.06h.4l.18-.06.18-.09.15-.12c.1827337-.1916338.2863165-.445233.29-.71a.9999997.9999997 0 00-.08-.38 1.1500015 1.1500015 0 00-.21-.33zM41.71 8.7899996l-.15-.12-.18-.09-.18-.06a.9.9 0 00-.4 0l-.18.06-.18.09-.15.12a1.1500015 1.1500015 0 00-.21.33c-.1069768.2420398-.1069768.51796 0 .76a1.0000006 1.0000006 0 00.21.33l.15.12.18.09.18.06h.4l.18-.06.18-.09.15-.12a1.0000006 1.0000006 0 00.21-.33c.1069768-.24204.1069768-.5179602 0-.76a1.1500015 1.1500015 0 00-.21-.33z"/>
    <path d="M17.24 37.1099996h-1.85v-1.85c0-.5522848-.4477153-1-1-1s-1 .4477152-1 1v1.85h-1.86c-.5522847 0-1 .4477152-1 1 0 .5522847.4477153 1 1 1h1.86v1.89c0 .5522847.4477153 1 1 1s1-.4477153 1-1v-1.89h1.85c.5522847 0 1-.4477153 1-1 0-.5522848-.4477153-1-1-1z"/>
    <path d="M14.39 30.7299928c-2.9907922-.0040376-5.6891537 1.7949941-6.8355493 4.5573538-1.1463956 2.7623597-.5147744 5.943354 1.600037 8.0581653 2.1148113 2.1148114 5.2958056 2.7464326 8.0581653 1.600037 2.7623596-1.1463957 4.5613913-3.8447572 4.5573538-6.8355493-.0055154-4.0735776-3.3064292-7.3744915-7.3800068-7.3800068zm0 12.7700161c-2.180957.004037-4.1494135-1.3066258-4.9868348-3.3204071-.8374214-2.0137813-.3787475-4.3337547 1.1619921-5.8773581 1.5407395-1.5436033 3.8598571-2.0065846 5.87519-1.1729044C18.4556803 33.9630196 19.77 35.9290389 19.77 38.1099996c-.0054808 2.9706416-2.4093737 5.3790026-5.38 5.3900093z"/>
  </g>
</svg>
