<svg xmlns="http://www.w3.org/2000/svg" xmlns:xlink="http://www.w3.org/1999/xlink" version="1.1" x="0px" y="0px" viewBox="0 0 100 125" enable-background="new 0 0 100 100" xml:space="preserve"><g><path d="M73.326,5H26.674c-2.635,0-4.779,2.144-4.779,4.778v80.443c0,2.635,2.145,4.778,4.779,4.778h46.652   c2.635,0,4.779-2.144,4.779-4.778V9.778C78.105,7.144,75.961,5,73.326,5z M50,91.923c-1.91,0-3.462-1.549-3.462-3.462   C46.538,86.55,48.09,85,50,85s3.462,1.55,3.462,3.461C53.462,90.374,51.91,91.923,50,91.923z M74.355,81.511   c0,0.2-0.163,0.362-0.362,0.362H26.007c-0.199,0-0.362-0.162-0.362-0.362V13.634c0-0.2,0.163-0.362,0.362-0.362h47.986   c0.199,0,0.362,0.162,0.362,0.362V81.511z"/><path d="M50,35.071c-6.899,0-12.5,5.601-12.5,12.501c0,6.898,5.601,12.5,12.5,12.5s12.5-5.602,12.5-12.5   C62.5,40.672,56.899,35.071,50,35.071z M56.946,50.025h-4.492v4.492h-4.908v-4.492h-4.492v-4.907h4.492v-4.492h4.908v4.492h4.492   V50.025z"/></g><text x="0" y="115" fill="#000000" font-size="5px" font-weight="bold" font-family="'Helvetica Neue', Helvetica, Arial-Unicode, Arial, Sans-serif">Created by Milinda Courey</text><text x="0" y="120" fill="#000000" font-size="5px" font-weight="bold" font-family="'Helvetica Neue', Helvetica, Arial-Unicode, Arial, Sans-serif">from the Noun Project</text></svg>