<svg xmlns="http://www.w3.org/2000/svg" data-name="Слой 1" viewBox="0 0 128 160" x="0px" y="0px"><title>ic_cloak</title><path d="M92.16,38.75a.77.77,0,0,0,0-.15A12.44,12.44,0,0,0,82,28.31l-2.83-.48c.24-2.81.66-9.32-.15-14.16C77.92,7.36,73.37,0,64,0S50.08,7.36,49,13.67c-.81,4.84-.39,11.35-.15,14.17l-2.83.47A12.44,12.44,0,0,0,35.86,38.6a.77.77,0,0,0,0,.15L32.43,77a2,2,0,0,0,1.78,2.16l10.34,1.14L44,126a2,2,0,0,0,2,2H82a2,2,0,0,0,2-2l-.55-45.64L93.79,79.2A2,2,0,0,0,95.57,77ZM53,14.33C53.38,11.91,55.37,4,64,4s10.62,7.91,11,10.33a60.44,60.44,0,0,1,.13,12.84L74.33,27A1.84,1.84,0,0,0,74,27H70.21A13.79,13.79,0,0,0,72,20c0-2.72,0-11-8-11s-8,8.28-8,11a13.79,13.79,0,0,0,1.79,7H54a1.87,1.87,0,0,0-.34,0l-.84.14A59.78,59.78,0,0,1,53,14.33ZM60,20c0-6.46,1.89-7,4-7s4,.54,4,7c0,4.13-2.11,7-4,7S60,24.13,60,20ZM36.59,75.44l3.23-36.26a8.44,8.44,0,0,1,6.89-6.93L54.18,31H62V61H48.78L49,43a2,2,0,0,0-4,0l-.4,33.34ZM48.74,65H62v59H48ZM66,124V65H79.26L80,124ZM83.4,76.32,83,43a2,2,0,0,0-2-2h0a2,2,0,0,0-2,2l.22,18H66V31h7.83l7.46,1.25a8.44,8.44,0,0,1,6.89,6.93l3.23,36.26Z"/><text x="0" y="143" fill="#000000" font-size="5px" font-weight="bold" font-family="'Helvetica Neue', Helvetica, Arial-Unicode, Arial, Sans-serif">Created by LAFS</text><text x="0" y="148" fill="#000000" font-size="5px" font-weight="bold" font-family="'Helvetica Neue', Helvetica, Arial-Unicode, Arial, Sans-serif">from the Noun Project</text></svg>