<svg xmlns="http://www.w3.org/2000/svg" xmlns:xlink="http://www.w3.org/1999/xlink" viewBox="0 0 91 122.5" version="1.1" x="0px" y="0px"><title>Group 7</title><desc>Created with Sketch.</desc><g stroke="none" stroke-width="1" fill="none" fill-rule="evenodd"><g transform="translate(-4535.000000, -1432.000000)" fill="#000000" fill-rule="nonzero"><g transform="translate(4535.500000, 1432.000000)"><g><path d="M15,59.2444542 L15,47.191445 C15,37.6435946 23.6492581,30 34.214956,30 C44.7806539,30 53.4299121,37.6435946 53.4299121,47.191445 C53.4299121,47.4357101 53.4463473,53.3852497 53.4519935,55.6987503 C53.4588707,58.5166881 53.464325,61.1525169 53.4681497,63.6406029 C53.4823128,72.8540838 53.4725635,78.699775 53.4288561,79.9793464 L53.3670102,81.7899408 L49.7458214,81.666249 L49.8076673,79.8556546 C49.8490279,78.6447872 49.8588533,72.7535216 49.8448533,63.6461727 C49.8410304,61.1592894 49.8355783,58.5245159 49.8287036,55.707593 C49.8230765,53.4019306 49.8066114,47.4415601 49.8066114,47.191445 C49.8066114,39.7512433 42.8724188,33.6233007 34.214956,33.6233007 C25.5574933,33.6233007 18.6233007,39.7512433 18.6233007,47.191445 L18.6233007,55.6211535 L22.277012,55.6211535 L22.277012,63.7382674 L35.6753733,63.7382674 L35.6753733,67.3615681 L27.6474623,67.3615681 L27.6474623,63.7382674 L35.6753733,63.7382674 L35.6753733,67.3615681 L29.4591126,67.3615681 L31.270763,65.5499177 L31.270763,81.7291509 L22.8695321,81.7291509 L22.8695321,78.1058501 L27.6474623,78.1058501 L27.6474623,67.3615681 L18.6537113,67.3615681 L18.6537113,59.2444542 L15,59.2444542 Z M81.7633185,0.2464 C86.2001778,0.2464 89.8074074,3.85362963 89.8074074,8.28385185 L89.8074074,75.1188148 C89.8074074,79.5556741 86.2001778,83.1595852 81.7633185,83.1595852 L81.1560296,83.1595852 C81.7965037,82.1773037 82.201363,81.0423704 82.3573333,79.8244741 C84.7267556,79.5191704 86.5884444,77.5712 86.5884444,75.1221333 L86.5884444,8.28717037 C86.5884444,5.62571852 84.4247704,3.46204444 81.7633185,3.46204444 L30.2930963,3.46204444 C29.5762963,3.46204444 28.9125926,3.64124444 28.2986667,3.92 L23.5531852,3.92 C24.9901037,1.71318519 27.469037,0.2464 30.2930963,0.2464 L81.7633185,0.2464 Z M70.7425185,7.5936 C75.1826963,7.5936 78.7899259,11.2008296 78.7932444,15.6343704 L78.7932444,82.4660148 C78.7932444,86.9028741 75.1860148,90.5067852 70.745837,90.5067852 L70.1385481,90.5067852 C70.7790222,89.5245037 71.1838815,88.3895704 71.3398519,87.1716741 C73.7092741,86.8663704 75.570963,84.9184 75.570963,82.4693333 L75.570963,15.6343704 C75.570963,12.9729185 73.4072889,10.8092444 70.7425185,10.8092444 L19.2722963,10.8092444 C18.5554963,10.8092444 17.8917926,10.9884444 17.2778667,11.2672 L12.5323852,11.2672 C13.9693037,9.06038519 16.448237,7.5936 19.2722963,7.5936 L70.7425185,7.5936 Z M59.5143111,15 C63.9544889,15 67.5617185,18.6072296 67.5617185,23.0407704 L67.5617185,89.8757333 C67.5617185,94.3125926 63.9544889,97.9165037 59.5143111,97.9165037 L8.04408889,97.9165037 C3.60722963,97.9165037 -9.9475983e-14,94.3092741 -9.9475983e-14,89.8757333 L-9.9475983e-14,23.0407704 C-9.9475983e-14,18.6039111 3.60722963,15 8.04408889,15 L59.5143111,15 Z M64.3427556,89.8757333 L64.3427556,23.0407704 C64.3427556,20.382637 62.1790815,18.2156444 59.5143111,18.2156444 L8.04408889,18.2156444 C5.37931852,18.2156444 3.21564444,20.382637 3.21564444,23.0407704 L3.21564444,89.8757333 C3.21564444,92.5371852 5.37931852,94.7008593 8.04408889,94.7008593 L59.5143111,94.7008593 C62.1790815,94.7008593 64.3427556,92.5338667 64.3427556,89.8757333 Z"/></g></g></g></g><text x="0" y="113" fill="#000000" font-size="5px" font-weight="bold" font-family="'Helvetica Neue', Helvetica, Arial-Unicode, Arial, Sans-serif">Created by Silviu Ojog</text><text x="0" y="118" fill="#000000" font-size="5px" font-weight="bold" font-family="'Helvetica Neue', Helvetica, Arial-Unicode, Arial, Sans-serif">from the Noun Project</text></svg>